<svg xmlns="http://www.w3.org/2000/svg" viewBox="0 0 100 100"><defs><linearGradient id="a" x1="0" x2="1" y1="1" y2="0"><stop offset="0%" stop-color="rgba(227, 132, 69, 1)"/><stop offset="100%" stop-color="rgba(235, 55, 5, 1)"/></linearGradient></defs><path fill="url(#a)" stroke="url(#a)" stroke-width="0" d="M25-31.3c7.7 2.6 14.6 9.4 17 17.5 2.4 8 .1 17.4-4 24.9-4.2 7.5-10.3 13.1-16.9 18C14.4 34 7.2 38.2.3 37.8c-6.9-.5-13.4-5.6-17.7-11.3-4.4-5.6-6.5-11.9-9.9-18.5-3.4-6.7-8.1-13.9-7.6-20.5s6.4-12.7 13.1-15.6c6.7-2.8 14.2-2.5 22.3-3.2 8.1-.8 16.7-2.5 24.5 0z" transform="translate(50 50)" style="transition:all .3s ease 0s"/></svg>